<svg xmlns="http://www.w3.org/2000/svg" viewBox="0 0 480 480">
  <path fill="#ffffff" d="M224.002 448h32a8 8 0 0 0 0-16h-32a8 8 0 0 0 0 16zM104.002 120a8 8 0 0 0 8-8V64h256v64a8 8 0 0 0 16 0V32c0-14.4-18.464-32-40-32h-208c-22.08.026-39.974 17.92-40 40v72a8 8 0 0 0 8 8zm8-80c0-13.255 10.745-24 24-24h208c13.864 0 24 11.2 24 16v16h-256v-8z"/>
  <path fill="#ffffff" d="M376.002 352a8 8 0 0 0-8 8v40h-256v-32a8 8 0 0 0-16 0v72c.026 22.08 17.92 39.974 40 40h208c22.08-.026 39.974-17.92 40-40v-80a8 8 0 0 0-8-8zm-8 88c0 13.255-10.745 24-24 24h-208c-13.255 0-24-10.745-24-24v-24h256v24zM224.002 24h-16a8 8 0 0 0 0 16h16a8 8 0 0 0 0-16zM272.002 24h-16a8 8 0 0 0 0 16h16a8 8 0 0 0 0-16z"/>
  <path fill="#ffffff" d="M478.162 154.888a8 8 0 0 0-6.16-2.888H262.018l-4.08-27.512c-1.801-11.738-11.869-20.425-23.744-20.488h-34.192v16h34.192a8 8 0 0 1 7.92 6.832l27.952 188.68c1.801 11.738 11.869 20.425 23.744 20.488h19.664c4.335 12.442 17.935 19.014 30.376 14.68A23.857 23.857 0 0 0 358.53 336h34.944c4.418 12.497 18.131 19.046 30.627 14.627s19.046-18.131 14.627-30.627c-4.418-12.497-18.131-19.046-30.627-14.627A23.998 23.998 0 0 0 393.474 320H358.53c-4.335-12.442-17.935-19.014-30.376-14.68a23.857 23.857 0 0 0-14.68 14.68H293.81a8.056 8.056 0 0 1-7.92-6.832L283.346 296h164.656a8 8 0 0 0 7.856-6.52l24-128a8.003 8.003 0 0 0-1.696-6.592zM416.002 320a8 8 0 1 1 0 16 8 8 0 0 1 0-16zm-80 0a8 8 0 1 1 0 16 8 8 0 0 1 0-16zm105.36-40H280.978l-16.584-112h198.008l-21.04 112zM208.002 240c0-57.438-46.562-104-104-104s-104 46.562-104 104 46.562 104 104 104c57.41-.066 103.934-46.59 104-104zm-192 0c0-48.601 39.399-88 88-88s88 39.399 88 88-39.399 88-88 88c-48.577-.057-87.943-39.423-88-88z"/>
  <path fill="#ffffff" d="M112.002 304v-9.136c17.081-4.396 27.364-21.807 22.968-38.888-3.636-14.126-16.381-23.994-30.968-23.976-8.837 0-16-7.163-16-16s7.163-16 16-16 16 7.163 16 16a8 8 0 0 0 16 0c-.055-14.547-9.914-27.227-24-30.864V176a8 8 0 0 0-16 0v9.136c-17.081 4.396-27.364 21.807-22.968 38.888C76.67 238.15 89.415 248.018 104.002 248c8.837 0 16 7.163 16 16s-7.163 16-16 16-16-7.163-16-16a8 8 0 0 0-16 0c.055 14.547 9.914 27.227 24 30.864V304a8 8 0 0 0 16 0zM288.002 192h112a8 8 0 0 0 0-16h-112a8 8 0 0 0 0 16zM424.002 192h16a8 8 0 0 0 0-16h-16a8 8 0 0 0 0 16z"/>
</svg>
