<svg xmlns="http://www.w3.org/2000/svg" viewBox="0 0 323.3 323.3">
  <path fill="#fff" d="M35.05 134.17l37.456-30.968 7.073 8.555-37.457 30.967z" class="st0"/>
  <path fill="#fff" d="M284.4 132.7v11.1c-2.9 0-5.3-2.4-5.3-5.3v141.3h-235V138.6c0 2.9-2.4 5.3-5.3 5.3v-11.1c-3.3 0-5.8 2.6-5.8 5.8V291h257.2V138.6c.1-3.3-2.5-5.9-5.8-5.9z" class="st0"/>
  <path fill="#fff" d="M281.7 133.6l-120 75.7-120.1-75.7-6 9.4 126.1 79.5 126-79.5z" class="st0"/>
  <path fill="#fff" d="M184.09 203.55l7.367-8.303 96.94 86.016-7.367 8.303zM34.858 281.34l96.94-86.016 7.367 8.303-96.94 86.016zM70.5 63.2v98.7h11.1V74.3h160.1v87.6h11.1V63.2z" class="st0"/>
  <path fill="#fff" d="M243.698 111.725l7.073-8.555 37.456 30.968-7.072 8.555zM161.7 32.3l-42.2 32 6.7 8.9 35.5-26.9 35.5 26.9 6.7-8.9z" class="st0"/>
  <path fill="#fff" d="M108.2 258.5h107v11.1h-107zm11.7-122.9h-.2 63L163 155.5c-1 1-1.5 2.3-1.5 3.7s.6 2.6 1.5 3.7l3.1 3.1c1 1 2.2 1.5 3.6 1.5s2.6-.6 3.6-1.5l33.9-33.9c1-1 1.5-2.2 1.5-3.7 0-1.4-.6-2.7-1.5-3.7l-33.9-33.9c-1-1-2.2-1.5-3.6-1.5s-2.6.6-3.6 1.5l-3.1 3.1c-1 1-1.5 2.2-1.5 3.6s.6 2.6 1.5 3.6l20 19.9h-63.1c-2.8 0-5.2 2.5-5.2 5.3v4.3c0 2.8 2.4 5 5.2 5z" class="st1"/>
</svg>