<svg xmlns="http://www.w3.org/2000/svg" data-name="Layer 1" viewBox="0 0 1232.15 295.02">
  <path fill="#ccc" d="M429.3 137.83c-2.84-3.2-42.3-52.6-49.24-61s-10.35-6.83-14.63-6.2-54.2 9-60 10-9.45 3.3-5.88 8.28c3.17 4.5 36 51 43.2 61.3l-130.43 31.2L108.56 7.9c-4.13-6.13-5-8.27-14.4-7.85S12.8 6.45 7.66 6.9-3.1 9.6 2 21.7 88.9 210 91.2 215.12s8.2 13.44 22.07 10.1c14.2-3.4 63.5-16.27 90.43-23.32 14.23 25.77 43.25 78 48.62 85.54 7.17 10 12.1 8.35 23.1 5 8.6-2.6 134.4-47.85 140.07-50.18s9.1-4 5.3-9.67c-2.8-4.2-36-48.7-53.4-71.9 11.9-3.2 54.2-14.5 58.7-15.7 5.2-1.4 5.9-4.1 3.1-7.2zm-237.17 48.5c-1.56.32-74.63 17.8-78.53 18.7s-3.9.45-4.34-.9S22.38 24.6 21.18 22.37s-1.14-4 0-4 69-6.07 71.4-6.2 2.16.4 3 1.9c0 0 95.74 165.25 97.4 168.14s.7 3.8-.85 4.2zm206 38.6c1.17 1.84 2.33 3-1.33 4.34s-123.67 41.83-126 42.83-4.17 1.33-7.17-3-42-71.9-42-71.9l127.2-33.1c3.18-1 4.18-1.67 6.18 1.5s42 57.5 43.2 59.33zm8.16-90.3c-2.9.6-49.6 12.2-49.6 12.2l-38.2-52.4c-1.1-1.53-2-3 .7-3.4s46.1-8.2 48-8.65 3.6-1 6 2.32 35.4 45.1 36.7 46.7-.9 2.6-3.7 3.22zm117.2 73.5V71.8a2.9 2.9 0 0 1 3-3h11.4a2.9 2.9 0 0 1 3 3v127.7h53.5a2.9 2.9 0 0 1 3 3v10.35a2.9 2.9 0 0 1-3 3h-63.3a7.58 7.58 0 0 1-7.6-7.7zm92.8-23.03c0-18.6 13.3-31.3 35.7-34.46 10.1-1.48 18.4-2.54 27.5-3.8 8.2-1.28 11.6-5.3 11.6-13.54v-1.7c0-13.73-12.3-22.6-27.7-22.6-12.7 0-22 5.5-27.1 14a5.12 5.12 0 0 1-4.3 2.74 5 5 0 0 1-2.8-1.06l-5.7-3.8a4.42 4.42 0 0 1-1.9-3.6 4.73 4.73 0 0 1 .6-2.1c7.83-13.12 22.4-21.8 41.45-21.8 25.8 0 43.36 15.23 43.36 38.28v81.18a2.9 2.9 0 0 1-3 3h-8.87a2.9 2.9 0 0 1-3-3V198.2c-8.7 12.68-22.86 20.3-39.1 20.3-21.5 0-36.95-13.32-36.95-33.4zm75.5-17.1v-8.7c-12.9 1.48-21.2 2.75-38.5 5.3-14 2.1-21.2 8.87-21.2 19.86 0 11.63 9.3 19.24 22.8 19.24 22 0 36.8-20.3 36.8-35.7zm41.8 44.8v-9.73a2.9 2.9 0 0 1 3-3h17.5v-89h-17.6a2.9 2.9 0 0 1-3-3v-9.02a2.9 2.9 0 0 1 3-3H763a7.58 7.58 0 0 1 7.6 7.6v10.58l12.27-9.5c10.57-8 15.64-9.95 22.4-9.95h6.35a2.77 2.77 0 0 1 3 3v10.36a2.9 2.9 0 0 1-3 3H807c-6.55 0-11 1.48-23.9 11.84l-12.46 9.94v67.18h24.52a2.9 2.9 0 0 1 3 3v9.72a2.9 2.9 0 0 1-3 3H736.6a2.9 2.9 0 0 1-2.95-3.03zm96.8-27.7c0-18.6 13.3-31.3 35.7-34.46 10.1-1.48 18.4-2.54 27.5-3.8 8.2-1.28 11.6-5.3 11.6-13.54v-1.7c0-13.73-12.3-22.6-27.7-22.6-12.7 0-22 5.5-27.1 14a5.12 5.12 0 0 1-4.26 2.74 5 5 0 0 1-2.75-1.06l-5.7-3.8a4.42 4.42 0 0 1-1.9-3.6 4.73 4.73 0 0 1 .6-2.1c8-13.18 22.6-21.85 41.6-21.85 25.8 0 43.33 15.22 43.33 38.27v81.2a2.9 2.9 0 0 1-3 3h-8.88a2.9 2.9 0 0 1-3-3v-14.6c-8.67 12.68-22.83 20.3-39.1 20.3-21.45 0-36.88-13.32-36.88-33.4zm75.5-17.1v-8.7c-12.9 1.48-21.2 2.75-38.5 5.3-14 2.1-21.2 8.87-21.2 19.86 0 11.63 9.3 19.24 22.8 19.24 22 0 36.8-20.3 36.8-35.7zm77.6 45l-39.7-112.26c-.9-2.54.6-4.65 3.1-4.65h9.7a4.33 4.33 0 0 1 4 2.7l33.4 96.4 32.7-96.4a4.33 4.33 0 0 1 4-2.8h9.3c2.54 0 4 2.1 3.17 4.6l-39.7 112.3a4.34 4.34 0 0 1-4 2.7h-12a4.33 4.33 0 0 1-4.1-2.8zm78-43.34v-30.23a45.88 45.88 0 1 1 91.7 0v14.38a7.58 7.58 0 0 1-7.7 7.7H1078v9.3a29.32 29.32 0 0 0 29.4 29.4h30.64a2.9 2.9 0 0 1 3 3v9.7a2.9 2.9 0 0 1-3 3h-30.65a45.88 45.88 0 0 1-45.9-46.1zm75.2-23.47v-7.9a29.4 29.4 0 0 0-58.8 0v7.8zm53.5 61.9V70.9h-19.7a2.9 2.9 0 0 1-3-3v-9.7a2.9 2.9 0 0 1 3-3h28.5a7.58 7.58 0 0 1 7.6 7.64V200.1h22.4a2.9 2.9 0 0 1 3 3v9.72a2.9 2.9 0 0 1-3 3h-31.3a7.58 7.58 0 0 1-7.6-7.68z"/>
</svg>
