<svg xmlns="http://www.w3.org/2000/svg" viewBox="0 0 52 48">
  <path fill="#fff" d="M50.3 6.7c-.2-.2-.4-.3-.6-.3h-.9c-1.9 0-3.5 1.6-3.5 3.5-1.9 0-3.5 1.6-3.5 3.5-1.9 0-3.5 1.6-3.5 3.5v2.3l-6.6 6.6c-1.4 1.4-2.1 3.2-2.1 5.1v5.3h-.9c-.2 0-.5.1-.6.3-.2.2-.3.4-.3.6v5.3c0 .2.1.5.3.6.2.2.4.3.6.3h14c.2 0 .5-.1.6-.3.2-.2.3-.4.3-.6v-5.3c0-.2-.1-.5-.3-.6-.2-.2-.4-.3-.6-.3h-.2l7.9-12.7c.1-.1.1-.3.1-.5V7.4c0-.3-.1-.5-.2-.7zm-6.8 6.8c0-1 .8-1.7 1.8-1.8v7.5L43.5 21v-7.5zM40 17c0-1 .8-1.7 1.8-1.8v4.1c-.1-.2-.2-.3-.4-.4l-.8-.8c-.2-.2-.4-.3-.6-.3V17zm1.8 24.5H29.5V38h12.3v3.5zm7-18.6l-8.4 13.4h-9.1V31c0-1.4.6-2.8 1.6-3.9L40 20l.1.2c.3.3.5.8.5 1.2 0 .5-.2.9-.5 1.2l-3.8 3.8c-.3.3-.4.7-.4 1.1 0 .4.1.8.4 1.1.3.3.7.4 1.1.4.4 0 .8-.1 1.1-.4l8.3-8.3c.2-.2.3-.4.3-.6V10c0-1 .8-1.8 1.8-1.8v14.7zM23.4 36.3h-.9V31c0-1.9-.8-3.8-2.1-5.1l-6.6-6.6V17c0-1.9-1.6-3.5-3.5-3.5 0-1.9-1.6-3.5-3.5-3.5 0-1.9-1.6-3.5-3.5-3.5h-.9c-.2 0-.5.1-.6.3-.2.1-.3.3-.3.6v15.8c0 .2 0 .3.1.5l7.9 12.7h-.1c-.2 0-.5.1-.6.3-.2.2-.3.4-.3.6v5.3c0 .2.1.5.3.6.2.2.4.3.6.3h14c.2 0 .5-.1.6-.3.2-.2.3-.4.3-.6v-5.3c0-.2-.1-.5-.3-.6-.2-.4-.4-.4-.6-.4zM10.2 15.2c1 0 1.8.8 1.8 1.7v.9c-.2 0-.4.1-.6.3l-.8.8-.4.4v-4.1zm-3.5-3.5c1 0 1.7.8 1.8 1.8V21l-1.8-1.8v-7.5zM3.2 22.9V8.2C4.2 8.2 5 9 5 10v9.6c0 .2.1.5.3.6l8.3 8.3c.3.3.7.4 1.1.4s.8-.1 1.1-.4c.3-.3.4-.7.4-1.1 0-.4-.1-.8-.4-1.1L12 22.5c-.3-.3-.5-.8-.5-1.2 0-.5.2-.9.5-1.2V20l7.2 7.2c1 1 1.6 2.4 1.6 3.9v5.3h-9.1L3.2 22.9zm19.3 18.6H10.2V38h12.3v3.5zm12.2-25.8c1.2-1.3 1.8-2.9 1.8-4.5s-.6-3.3-1.8-4.5a5.86 5.86 0 0 0-4.3-1.9c-1.6 0-3.2.6-4.3 1.9a5.86 5.86 0 0 0-4.3-1.9c-1.6 0-3.2.6-4.3 1.9-1.2 1.3-1.8 2.9-1.8 4.5s.6 3.3 1.8 4.5l8.1 8.1c.2.2.4.3.6.3.2 0 .4-.1.6-.3l7.9-8.1zM26 21.9l-7.4-7.5c-.8-.9-1.3-2.1-1.3-3.3 0-1.2.4-2.4 1.3-3.3.9-.9 2-1.3 3.1-1.3s2.2.4 3.1 1.3c.2.2.4.5.6.7 0 .3.3.5.6.5s.6-.2.7-.4c.2-.3.3-.5.6-.7.9-.9 2-1.3 3.1-1.3s2.2.4 3.1 1.3c.9.9 1.3 2.1 1.3 3.3 0 1.2-.4 2.4-1.3 3.3L26 21.9z"/>
</svg>
