<svg xmlns="http://www.w3.org/2000/svg" width="512" height="512">
  <path fill="#fff" d="M7029.965 37002.681c0 15.394-12.48 27.874-27.873 27.874-15.394 0-27.873-12.48-27.873-27.874 0-15.394 12.48-27.874 27.873-27.874 15.394 0 27.873 12.48 27.873 27.874zM6832.282 37085.624l-1.218.215-1.177.563z"/>
  <path fill="#fff" d="M6870.681 37069.957l-.051-.502c-.113-.942-.072-1.863-.041-2.775l-39.526 19.149 1.218-.215-2.386.778 1.167-.563-20.89 3.645 30.966 5.56 34.498-12.165-4.792-12.462-.164-.45zM6844.068 37101.056l-2.233-.399-2.099.707z"/>
  <path fill="#fff" d="M6877.44 37088.921l-35.605 11.735 2.233.399-4.332.297 2.099-.696-72.212-12.861-2.663 1.382-26.276 23.327 29.757-6.533-.973-.185 5.611-.84-4.639 1.024 72.704 12.944 2.15-.696 47.626-15.719c-3.123-.717-6.073-2.038-8.663-4.065-3.175-2.519-5.448-5.817-6.82-9.513z"/>
  <path fill="#fff" d="M6769.48 37105.797l.973.185 4.639-1.024zM6878.535 37067.366c0 .297-.113.573-.092.912l4.598 11.981 1.813-.645-6.318-12.247zM6885.079 37086.402c.87 2.253 2.119 4.321 4.065 5.857 2.898 2.304 6.502 3.318 10.168 2.898 0 0 2.498-.297 6.38-.738l-4.403-13.363-16.21 5.346zM6997.391 37038.622h-.092l.02.082zM6876.16 37083.904c.041.256.133.522.174.778l.072.185-.246-.963zM6978.887 37030.635l.123.02.409-.103z"/>
  <path fill="#fff" d="M6878.434 37068.575c-.02-.113.02-.215.02-.287l-.246-.676.225.963zM7061.985 37029.868l-63.815 12.585-24.167 5.264c5.427 6.082 18.473 16.589 31.181 29.122l60.877-32.082 184.709 7.004 2.078-11.315-190.864-10.578zM7081.626 37082.696l-6.451-4.188-5.52 5.468z"/>
  <path fill="#fff" d="M7102.331 37051.556l-27.157 26.952 6.451 4.188-11.971 1.28 5.52-5.468-27.648-17.838-19.671 10.086 49.89 32.226 5.499-5.478 43.12-44.964zM7029.637 37089.065l-5.673-4.649-6.492 5.223z"/>
  <path fill="#fff" d="M7066.736 37050.204l-42.773 34.212 5.673 4.649-12.165.573 6.492-5.223-8.766-7.137-10.834 5.56-3.4-2.704-34.97-33.26-8.468 11.796 66.959 50.463 5.878-5.315 58.675-52.9zM6970.43 37040.702l-3.789 5.274 7.711-2.079z"/>
  <path fill="#fff" d="M6965.412 37046.302l.583.573.645-.901z"/>
  <path fill="#fff" d="M6966.641 37045.975l7.711-2.079s16.773-3.881 18.821-4.423c-2.222-5.683-7.824-9.503-14.162-8.817l-88.412 22.518c-7.178.84-12.267 7.096-12.052 14.192l6.318 12.247-1.813.645.686 1.792.185.45.051.502c.133 1.198.666 2.304 1.106 3.399l16.22-5.335 4.403 13.363c19.763-2.304 79.544-9.277 79.565-9.277 2.058-.215 3.953-1.116 5.703-2.283l-12.913-24.535-12.052-11.448.635-.912zM218.685 257.034c0 23.44 18.954 42.414 42.394 42.414 23.429 0 42.404-18.974 42.404-42.414 0-11.469-4.618-21.842-12.002-29.481l-15.862 23.081-9.175-6.892 2.161-3.072 14.019-19.978c-6.339-3.748-13.66-6.062-21.545-6.062-23.44 0-42.394 18.985-42.394 42.404zM348.478 144.446l32.144-46.807c-2.539-1.925-5.017-3.942-7.659-5.755l-32.645 46.51c2.846 1.894 5.519 3.963 8.161 6.052z"/>
  <path fill="#fff" d="M291.481 227.554l31.897-46.51c-2.745-2.263-5.601-4.311-8.54-6.256l-32.215 45.906c3.216 1.915 6.236 4.167 8.858 6.861zM351.283 120.627l9.523 8.171h24.525l12.841-16.353a195.05 195.05 0 0 0-17.541-14.807l-7.659-5.755c-5.796-3.942-11.899-7.486-18.125-10.803L341.75 97.464l9.534 23.163z"/>
  <path fill="#fff" d="M261.079 14.94c-69.929 0-132.874 29.675-177.06 77.056l27.535 33.28c36.526-41.451 89.886-67.717 149.524-67.717 33.904 0 65.782 8.591 93.767 23.531l25.058-31.294 4.045 35.41 36.782-1.362-22.558 28.6c38.38 36.331 62.403 87.582 62.403 144.579 0 110.213-89.323 199.516-199.486 199.516-110.183 0-199.536-89.313-199.536-199.516 0-47.022 16.425-90.183 43.653-124.283L77.528 99.296c-36.485 42.373-58.553 97.465-58.553 157.737 0 133.745 108.391 242.105 242.105 242.105 133.683 0 242.084-108.36 242.084-242.105 0-133.703-108.401-242.094-242.084-242.094z"/>
  <path fill="#fff" d="M214.375 122.327c3.358-1.168 6.768-2.171 10.22-3.093a155.856 155.856 0 0 0-10.22 3.093zM124.631 215.194c.266-.86.594-1.679.871-2.519-.276.839-.594 1.659-.871 2.519zM120.903 230.81c.246-1.341.461-2.652.748-3.973-.287 1.321-.492 2.631-.748 3.973zM229.601 117.965c3.533-.809 7.178-1.392 10.823-1.936-3.635.522-7.27 1.116-10.823 1.936zM128.922 203.335c.604-1.536 1.27-3.031 1.956-4.526-.686 1.506-1.351 2.99-1.956 4.526zM183.726 137.237c4.024-2.611 8.202-4.966 12.503-7.189-4.301 2.202-8.489 4.588-12.503 7.189zM199.352 128.542a139.598 139.598 0 0 1 10.619-4.588 134.952 134.952 0 0 0-10.619 4.588zM119.04 243.938c.123-1.31.287-2.631.461-3.932-.174 1.3-.348 2.611-.461 3.932zM165.202 205.281l7.445-6.144-24.29-29.358c-2.161 2.775-4.26 5.55-6.206 8.489.102-.164.205-.338.307-.522l22.743 27.535zM245.156 115.302c5.232-.594 10.537-.942 15.923-.942-5.386 0-10.69.348-15.923.942zM134.174 191.97c.748-1.464 1.495-2.97 2.325-4.403-.829 1.454-1.577 2.929-2.325 4.403zM183.286 137.502a143.038 143.038 0 0 0-34.877 32.205 144.434 144.434 0 0 1 34.877-32.205z"/>
  <path fill="#fff" d="M245.156 115.302c-1.597.174-3.154.502-4.731.717-3.635.553-7.291 1.126-10.823 1.936-1.69.368-3.338.829-5.007 1.28-3.451.921-6.861 1.925-10.22 3.093a118.29 118.29 0 0 0-4.403 1.618 141.667 141.667 0 0 0-10.619 4.587c-1.054.512-2.109 1.004-3.133 1.506-4.301 2.222-8.478 4.577-12.503 7.189-.143.092-.297.195-.44.256a144.577 144.577 0 0 0-34.877 32.205c-.041.01-.051.051-.051.082l24.29 29.358-7.445 6.144-22.754-27.525c-.113.185-.215.358-.307.522-2.018 3.011-3.87 6.124-5.653 9.298-.829 1.434-1.566 2.939-2.325 4.403-1.137 2.243-2.253 4.516-3.287 6.84-.686 1.495-1.362 2.99-1.956 4.526a150.836 150.836 0 0 0-3.42 9.328c-.276.839-.604 1.659-.871 2.519-1.157 3.81-2.15 7.71-2.98 11.653-.287 1.321-.502 2.631-.748 3.973a114.293 114.293 0 0 0-1.413 9.196c-.174 1.3-.338 2.621-.461 3.932-.4 4.321-.645 8.673-.645 13.086 0 78.807 63.867 142.715 142.695 142.715 78.807 0 142.704-63.897 142.704-142.715 0-45.824-21.699-86.466-55.296-112.579l-25.098 36.598c21.995 18.012 36.004 45.363 36.004 76.001 0 54.303-44.002 98.345-98.304 98.345-54.313 0-98.314-44.042-98.314-98.345 0-54.282 44.001-98.314 98.314-98.314 19.865 0 38.288 5.929 53.76 16.046l25.477-36.382c-22.682-15.165-49.92-24.043-79.248-24.043-5.376.01-10.68.359-15.913.953z"/>
  <path fill="#fff" d="M224.594 119.245c1.669-.451 3.318-.912 5.007-1.28-1.7.368-3.338.829-5.007 1.28zM119.49 240.005a113.07 113.07 0 0 1 1.413-9.196 123.99 123.99 0 0 0-1.413 9.196zM209.971 123.945zM148.337 169.758l.02.02.051-.082zM240.425 116.019c1.577-.215 3.133-.553 4.731-.717-1.597.174-3.154.481-4.731.717zM118.385 257.034c0-4.423.246-8.766.645-13.087-.4 4.311-.645 8.663-.645 13.087zM121.651 226.837zM136.499 187.566c1.782-3.184 3.625-6.287 5.653-9.298-2.028 3.011-3.881 6.124-5.653 9.298zM125.501 212.674zM183.286 137.502c.143-.071.297-.174.44-.256-.143.082-.297.185-.44.256zM130.887 198.81a160.295 160.295 0 0 1 3.287-6.84c-1.137 2.243-2.253 4.516-3.287 6.84zM196.229 130.048c1.024-.512 2.078-1.004 3.133-1.506-1.054.522-2.119.963-3.133 1.506zM79.043 86.046l-4.219-5.141-2.969 6.462-3.625.737 9.298 11.192a198.237 198.237 0 0 1 6.492-7.301l-4.977-5.95zM142.459 177.746c1.833-2.755 3.861-5.356 5.878-7.987l-36.782-44.483c-2.181 2.468-4.322 4.905-6.37 7.465l37.274 45.005zM53.002 54.528l21.821 26.378 9.493-20.521-35.481-47.524-9.124 30.791-30.873 2.407 34.283 47.145 25.108-5.1-22.681-27.413z"/>
  <path fill="#fff" d="M74.823 80.906L53.001 54.528l-7.455 6.165 22.681 27.413 3.625-.737z"/>
</svg>
